<?xml version="1.0" encoding="utf-8"?>
<!-- Generator: Adobe Illustrator 28.1.0, SVG Export Plug-In . SVG Version: 6.00 Build 0)  -->
<svg version="1.1" id="Layer_1" xmlns="http://www.w3.org/2000/svg" xmlns:xlink="http://www.w3.org/1999/xlink" x="0px" y="0px"
	 viewBox="0 0 256 256" style="enable-background:new 0 0 256 256;" xml:space="preserve">
<style type="text/css">
	.st0{stroke:#000000;stroke-miterlimit:10;}
	.st1{fill:#FFFFFF;}
</style>
<circle class="st0" cx="128" cy="128" r="128"/>
<g transform="translate(0.000000,1029.000000) scale(0.100000,-0.100000)">
	<path class="st1" d="M1212.1,10200.3c-9.4-1.9-26.3-5.3-37.6-7.1c-46.3-7.5-112.1-32.7-148.6-56.4c-6-4.1-13.9-8.6-16.9-10.1
		c-28.2-12.4-97.4-80.1-125.6-122.9c-25.2-38-51.5-97.3-58.7-131.9c-1.9-8.3-5.3-19.9-7.9-26.3c-2.6-7.1-4.5-36.8-4.9-84.6
		c-0.4-75.5,0.8-81.6,18.8-133.4c3-8.6,5.3-18.4,5.3-22.2c0-3.8-10.9-21-24.4-38.3c-13.5-17.7-23.7-33.5-22.6-35.7
		c1.5-1.9,17.3-3.4,35.7-3.4s34.2-1.1,35.4-3c0.8-1.5-11.3-12.8-27.1-25.2c-38.4-29.7-109.8-101.5-140.7-140.9
		c-25.2-32.3-55.7-76.3-60.6-86.4c-1.5-3-6-10.5-10.2-16.9c-7.1-11.7-53.4-103.7-62.1-124c-2.6-6-7.1-17.3-10.5-24.4
		c-7.1-15.4-24.4-64.6-28.6-80.8c-1.9-6-4.9-15.4-7.1-20.7c-1.9-5.3-6.4-20.3-10.2-33.8c-3.4-13.5-8.7-33.1-11.7-43.6
		c-3-10.5-5.3-22.2-5.3-26.3c0-3.8-2.3-18.8-5.3-33.5c-14.7-69.9-18.4-112.4-18.8-202.6c-0.4-92.8,1.5-109,19.2-177
		c19.2-74.8,58.7-147,110.6-202.6c20.3-21.8,24.8-28.2,19.9-30.1c-12.4-4.9-94.4,5.3-127.5,15.8c-85.4,26.3-167.8,96.2-209.1,177.4
		c-19.2,36.8-37.2,88.7-37.2,106c0,5.6-1.9,14.7-4.1,20.7c-12.8,32.7-10.5,154.8,4.1,215.4c4.5,17.7,9,38,10.9,45.1
		s4.9,17.3,7.1,22.6c1.9,5.3,6.8,16.9,10.2,26.3c16.6,42.8,47,104.1,74.1,148.5c3.8,6.4,8.3,14.7,10.5,18.8c2.3,4.1,9,16.2,15,26.3
		c13.9,22.9,41.4,79.3,41.4,84.9c0,2.3,2.3,8.6,5.3,13.9c10.9,20.7,18.1,55.2,16.2,78.2c-2.6,36.5-16.2,62.4-41.8,80.8
		c-12,9-18.4,10.9-36.1,10.9s-24.1-1.9-36.9-10.9c-8.3-6-16.6-13.5-18.1-16.2c-1.9-2.6-2.6-23.7-2.3-47c0.8-33.8-0.4-45.1-6.4-60.1
		c-8.7-21.8-27.8-61.6-38.7-80.1c-4.1-7.1-11.7-20.7-16.9-30.1c-5.3-9.4-15-27.1-22.2-39.5c-12.4-21.8-46.3-89.8-56-112.8
		c-2.6-6-7.5-17.7-10.9-25.6s-6-16.9-6-20.7c0-3.4-2.3-12.8-5.3-21.4c-20.3-59.4-36.5-153-36.1-208.6c0.4-33.5,9.4-121.8,15-144.7
		c6.8-27.8,27.1-92.5,32.3-103.4c32.3-66.9,45.5-87.2,85-133.8c13.9-16.9,36.1-39.8,49.3-51.1c45.1-39.5,123.4-80.4,171.9-89.5
		c9.4-1.9,22.9-5.6,30.1-7.9c10.2-3.8,95.9-5.3,366.7-6.4c194.1-0.8,357-0.4,361.9,1.1c7.5,1.9,8.7,4.5,8.7,20.3
		c0,36.1-24.1,71.4-59.4,86.8c-14.3,6.4-25.2,7.5-78.2,7.5c-33.5,0-62.1,1.5-63.2,3.4c-1.1,1.9,4.9,7.1,13.5,11.7
		c65.8,34.2,123.8,109.7,137.3,178.5c6,33.1,6,50-0.4,80.8c-8.3,40.2-26.3,73.7-54.9,102.2c-13.9,13.9-29.3,27.1-34.2,29.3
		c-4.9,1.9-11.7,5.3-14.7,7.1c-57.9,34.2-153.5,35.7-221.9,3c-13.5-6.4-30.5-16.5-38-22.2s-15.4-10.5-17.7-10.5
		c-4.9,0-12,50.4-12,83.8c0.4,30.1,7.9,88.7,15,117.3c7.9,31.2,27.1,86.4,31.2,90.6c3,3.4,17.7-9.4,17.7-15
		c0-2.3,7.5-15.8,16.9-29.7c16.9-25.9,21.8-32.3,48.1-63.9l14.7-17.3l-17.7-22.6c-23.7-30.1-21.8-33.8,13.5-29.7
		c41,4.9,92.2,0.4,124.5-10.5c15-5.3,30.8-10.5,35-11.7c10.2-3.4,50-26.7,52.7-31.2c7.1-11.3,98.6,6,144.8,27.4
		c63.9,29.3,118.1,88.3,158.7,171.8c30.1,62.4,41.4,84.9,44.8,88.3c2.3,2.3,14.3-7.1,33.5-26.3c37.6-37.2,39.1-45.9,13.2-72.2
		c-12.8-13.2-16.9-19.9-16.9-28.9c0.4-34.6,50.8-52.2,87.6-30.8c67.3,39.5,86.9,131.9,43.3,204.1c-12.4,20.3-50.8,56-100.8,93.6
		c-50.8,38-63.2,42.8-107.2,42.8c-49.7,0-61.7-6.4-111-56c-21.8-22.2-48.9-50.7-60.2-63.5c-11.7-12.8-22.9-23.3-25.6-23.3
		c-2.3,0-5.3,4.5-6.8,10.5c-1.1,5.6-4.1,16.9-6.8,25.2c-3,8.3-10.5,32.7-17.3,54.5c-6.4,21.8-14.3,45.1-17.3,51.9
		c-3,6.8-5.3,14.7-5.3,17.7s-2.3,10.9-5.3,17.7c-3,6.8-8.3,19.9-11.7,29.3c-3.4,9.4-8.7,21.4-11.7,27.1c-6.8,12.4-6.8,21.8,0,21.8
		c2.6,0,26.7-22.9,53-50.7c26.7-27.4,49.7-49.6,51.5-48.5c1.5,1.1,3,16.9,3,35.3s1.5,34.2,3.4,35.3c1.9,1.1,13.2-13.2,24.8-31.6
		c16.2-25.2,22.9-33.1,26.3-30.1c2.6,1.9,12.4,19.5,22.2,38.7c21.4,42.1,36.5,68.4,42.5,74.4c3.8,3.8,9.8,3.4,27.5-1.5
		c38.4-10.9,95.9-7.1,124.1,8.3c36.5,19.9,75.2,72.9,75.2,103c0,9-12.4,7.9-21.1-1.5c-13.5-15-48.5-39.8-65.8-46.2
		c-22.9-8.6-76.4-6.8-103.1,3.8c-18.1,7.1-18.8,7.9-19.9,23.7c-2.3,29.7,19.9,76.7,49.7,105.2c15,14.7,14.3,19.2-2.6,19.2
		c-6.8,0-16.9,2.6-22.9,5.6c-5.6,3-12,5.6-14.3,5.6c-6.8,0-26.3,17.3-40.2,35.7c-23.3,31.2-27.5,46.6-26,98.1
		c1.1,40.2,2.3,47,12,67.3c12.4,25.2,38.7,61.3,58.7,80.1c56,53.4,142.9,68.4,206.1,36.5c28.2-14.3,53-52.2,56.4-85.3
		c3.4-36.1-14.3-89.8-40.6-123.3c-6-7.5-10.2-15-8.7-16.2c3.8-4.1,45.1,30.8,60.2,50.7c16.9,23.3,22.9,38.3,28.2,68.8
		c5.3,31.6,1.1,121.4-6,139.1c-3.4,7.9-6,17.3-6,21c0,4.1-4.9,18-11.3,30.8c-6,13.2-11.3,25.2-11.3,26.3c0,1.5-9,17.3-19.6,35.3
		c-22.9,38-80.9,98.8-119.6,125.5c-23.7,16.2-82.4,46.2-109.1,55.6C1349.1,10199.9,1263.7,10210.4,1212.1,10200.3z M1129.4,9889.1
		c27.1-12.4,53-39.5,67.3-69.9c12-25.6,15-50.7,6.8-57.5c-2.3-2.3-9.8-5.3-15.8-6.8c-18.4-4.5-62.4-28.6-60.9-33.1
		c0.8-2.3,17.3-15,36.9-27.8c19.6-13.2,35.7-25.6,36.5-27.1c1.5-3.8-45.1-48.9-63.2-61.3c-36.5-24.4-95.2-25.9-142.9-3.4
		c-16.9,8.3-49.3,40.2-57.9,57.1c-45.9,90.6-15,192.1,71.1,232.6C1036.1,9905.6,1097,9904.1,1129.4,9889.1z M882.6,9279.1
		c1.1-4.9,2.6-16.9,4.1-27.4c5.6-47,16.2-87.6,33.9-131.5c10.5-25.2,37.6-78.2,49.3-96.2c7.1-10.5,12.8-19.9,12.8-21
		c0-0.8,7.5-11.3,16.6-22.9c60.9-79.3,118.5-130,182.8-160.9c30.1-14.3,52.3-23.3,61.7-24.8c12.8-1.9,6.8-8.6-9.8-11.3
		c-22.2-3.4-71.5,0.4-98.9,7.1c-45.1,12-91,39.1-129.4,77c-23.3,22.9-56.8,63.5-56.8,68.8c0,1.5-4.9,9-11.3,16.9
		c-6,7.9-11.3,15-11.3,16.2c0,1.5-4.9,10.5-10.5,20.3s-15.8,30.8-22.2,46.2c-29.3,70.7-35.4,98.8-35.7,161.6
		c0,36.1,1.5,54.5,5.3,63.9c3,7.1,6.8,16.2,7.9,19.9C874.3,9290,880.7,9288.8,882.6,9279.1z M593.7,8578.9
		c10.9-44.7,25.2-81.2,39.9-100c5.6-7.5,10.5-15.8,10.5-18c0-6.4-9.4-4.9-20.3,3.8c-12.4,9.8-22.9,6.8-19.6-5.3
		c5.3-21.4,6.8-50.7,2.6-53c-2.3-1.5-5.3,0.4-6.8,4.1c-1.1,3.8-4.1,9-6.4,12c-18.8,24.4-30.1,106.7-20.7,156.7
		C580.6,8620.2,583.6,8620.2,593.7,8578.9z"/>
	<path class="st1" d="M1042.9,9826.3c-38.4-16.5-62.1-63.9-52.3-104.5c5.6-24.8,26-49.6,47.4-59c26.7-11.3,72.6-8.3,72.6,4.9
		c0,2.3-10.2,14.7-22.6,28.2c-13.9,14.7-22.6,27.1-22.6,32.7c0,13.9,20.3,28.6,57.6,42.1c19.6,6.8,20.7,9.8,10.9,24.4
		c-12,17.7-21.4,25.2-39.5,31.2C1072.2,9833.8,1059.8,9833.8,1042.9,9826.3z"/>
	<path class="st1" d="M1519.6,9724.6c-17.4-7.7-33.3-22-43.1-39.6c-31.2-52.7,0.8-121.5,68.9-88.8c34.6,17.7,64.5,59,54.5,98.7
		c-8.7,35-48.9,44.8-79.6,30L1519.6,9724.6z"/>
	<path class="st1" d="M1554.4,9540.3c-14.3-5.3-23.7-22.9-20.3-36.8c2.3-9.8,18.4-15.8,25.6-9.8c3.4,3,7.1,1.5,12.8-5.3
		c4.5-5.3,10.9-9.4,13.9-9.4c3.4,0,13.5,7.9,22.9,17.3c13.9,14.3,16.6,19.9,15.8,29.3c-1.1,13.2-13.5,18-21.4,8.3
		c-4.5-5.3-6-5.3-14.3,1.5C1580,9542.5,1566.1,9544.4,1554.4,9540.3z"/>
	<path class="st1" d="M2172.1,9421.9c-2.6-2.6-4.5-8.3-4.5-13.2c0-7.5-2.6-15-16.9-48.1c-14.3-32.3-54.2-112.4-67.3-135.3
		c-8.7-14.3-19.2-33.8-24.1-43.2c-4.5-9.4-10.2-19.5-12-22.6c-4.5-6.8-21.4-36.8-37.2-65.4c-6.8-11.7-10.9-22.9-9.8-24.8
		c3.8-6,169.3-4.9,174.2,1.1c2.3,2.3,17.7,31.6,35,64.6c34.6,67.3,38.4,74,48.5,90.2c4.1,6.4,8.7,13.9,10.2,16.9
		c1.1,3,6.8,12.4,12,20.7c5.3,8.3,11.3,18,13.5,21.4c1.9,3.4,9.4,14.3,16.2,24.1c6.4,9.8,12,19.2,12,20.7c0,1.1-13.2,9-29,16.9
		c-36.9,18-67.7,38.7-93.7,62c-11.3,10.1-21.1,18.4-21.4,18.4C2177,9426.4,2174.7,9424.5,2172.1,9421.9z"/>
	<path class="st1" d="M1859.1,9168.2c-3-1.5-8.3-6-12-10.1c-5.6-6.8-6.4-14.3-5.6-49.2l0.8-41.3l53.4-1.1l53-1.1l7.5,12.4
		c7.1,12,30.1,53.7,40.6,74c9,17.7,3.4,19.2-67.7,18.8C1893.7,9170.5,1862.1,9169.3,1859.1,9168.2z"/>
	<path class="st1" d="M2244.7,9163.3c-6-6.8-7.9-15-8.7-43.6c-0.8-19.5-0.4-39.8,0.8-44.7l2.3-9.4h52.3c44,0,52.7,0.8,54.5,6
		c1.1,3.4,2.3,23.3,2.3,44.3c0,53,0.4,52.6-53.4,54.1C2254.8,9171.2,2251.4,9170.8,2244.7,9163.3z"/>
	<path class="st1" d="M1747.4,9013.4c-8.3-6.8-8.7-9.8-9.4-85.3l-1.1-78.6l-18.8-1.1c-33.5-1.9-35.7-4.5-35.7-42.8v-33.1h23.7
		c41,0,40.2,0.8,40.2-39.1c0-48.9-10.2-95.1-29.7-137.6c-24.1-51.5-78.6-107.9-124.5-128.2c-61.3-27.4-78.2-30.4-203.1-33.1
		l-111-2.3v-146.6v-146.6h48.9h48.9l1.9,94l1.9,94h398.7H2177v-24.4v-24.4l-374.3-1.9l-374.3-1.9l-0.4-62c0-34.2,1.1-65,3-68.4
		c3-6.4,27.1-6.8,423.5-6.8c322,0,421.7,1.1,425.1,4.5c3.4,3.4,4.5,75.2,4.5,300.7v295.8l13.9,2.6c21.8,4.1,37.2,15.4,44,31.9
		c4.5,11.7,6,28.9,6,78.9c0,36.8-1.5,66.9-3.8,71.4c-3.8,6.8-8.7,7.1-62.1,7.1H2224v-42.8c0-30.4-1.5-44-4.5-46.2
		c-2.6-1.5-42.9-3.8-89.5-4.9l-84.6-1.9l-1.9-49.6c-1.1-31.2-3.4-51.5-6.4-54.1c-6.4-6.4-56.4-8.6-76-3.4
		c-20.7,5.6-49.3,33.8-56.8,56c-6.4,19.2-2.6,24.1,17.3,22.2c10.5-0.8,15.8-3.4,18.8-9.4c8.7-17.7,17.3-24.1,31.2-22.9l13.5,1.1
		l1.1,26.3c0.4,14.7-0.8,28.6-2.3,31.2c-2.6,3.8-24.1,4.9-92.2,5.6c-63.2,0.4-89.9,1.9-93.3,5.3c-6.4,6.4-4.9,27.4,2.3,34.6
		c4.9,4.9,19.9,6.4,95.2,7.9l89.1,1.9l1.1,8.6c2.3,14.7-5.3,19.5-31.2,19.5c-15.4,0-24.4,1.5-25.6,4.9c-3.4,9.4,2.3,29.3,9.4,33.1
		c12,6.4,96.3,3,101.2-4.1c1.9-3,3.4-16.5,3-30.1c0-13.5,0-26.7,0-29.3c0.4-3.8,14.7-4.5,65.5-3.8l64.7,1.1l2.3,35
		c1.9,33.1,3,35.7,13.2,44c10.5,8.6,13.2,9,73.7,9.4c40.6,0,63.6,1.5,65.1,4.1c1.5,2.3-1.1,7.9-6,13.2c-7.5,8.3-11.3,9-41.4,9
		s-33.9,0.8-43.3,9.4l-10.2,9.4h-235.5C1767.3,9020.1,1755.3,9019.7,1747.4,9013.4z M2178.8,8536v-134.9l-243.4-1.5
		c-194.5-1.1-244.9-0.8-249,3c-4.9,4.1-4.5,5.3,1.9,7.5c26,9.4,79.4,66.5,103.8,110.9c13.9,24.4,36.9,78.9,36.9,86.4
		c0,3.4,2.6,12.4,5.6,19.5c3,7.5,5.6,19.5,5.6,26.3c0,7.1,1.1,13.9,2.6,15c1.1,1.5,77.5,2.6,169.3,2.6h166.6V8536z"/>
	<path class="st1" d="M1549.2,8715.7c-7.5-8.6-9.8-15.4-9.8-28.9c0-9.8,1.5-19.9,3-22.5c2.6-3.4,20.3-4.5,76.4-3.8l73,1.1v31.9v31.9
		l-66.2,1.1l-66.6,0.8L1549.2,8715.7z"/>
	<path class="st1" d="M1566.8,8611.6c-3.8-2.3-6.8-58.3-5.3-93.6c0.8-15.8,47,12.8,73,45.1c20.3,24.8,32.7,44.7,30.5,48.1
		C1662.8,8615.3,1573.2,8615.7,1566.8,8611.6z"/>
	<path class="st1" d="M1334.4,8573.2c-5.3-5.6-7.1-15.8-8.7-44.3c-2.3-46.6-2.3-46.6,46.6-45.1l37.2,1.1l1.1,41
		c1.5,52.6-0.4,54.9-40.6,54.9C1346,8580.8,1340,8579.6,1334.4,8573.2z"/>
	<path class="st1" d="M1447.6,8572.5c-4.5-6-6-17.7-6-42.8c0-19.2,1.1-37.2,2.3-40.6c2.6-7.1,19.6-7.5,54.2-1.1l24.4,4.5l1.1,35.3
		c1.1,31.9,0.4,36.1-7.1,44c-7.5,7.9-12,9-35.7,9C1456.6,8580.8,1452.5,8579.6,1447.6,8572.5z"/>
</g>
<path class="st1" d="M133.2,106.6c-2.2,1.5-7.6,5.8-13.5,10.9c-1.1,0.9-2.6,2.1-3.5,2.8c-2.1,1.5-2.3,2.1-0.9,3.2
	c0.5,0.4,1.4,1.2,1.8,1.7c0.5,0.5,1.2,1.1,1.6,1.4c0.5,0.3,0.9,0.8,1.2,1.1c0.6,1.1,2.6,1.6,4,1.1c3.3-1.2,10.6-2.6,16.8-3.3
	c2.1-0.2,4.1-0.5,4.3-0.7c0.3-0.2,1-1.5,1.6-3c2.2-5.3,2.2-5.4,3.6-5.4c0.6,0,2.4,0.2,3.9,0.4c2.4,0.4,2.8,0.6,3.2,1.5
	c0.4,0.8,0.3,1.3-0.2,2c-1.2,1.7,0.4,4.4,2.9,5.1c1.9,0.5,4.8-0.8,6.1-2.6c1.1-1.7,2-4.7,1.9-6.9c-0.1-2.5-3.3-8.3-5.6-10
	c-1.7-1.3-7.2-2.7-13.4-3.5c-6.3-0.8-7.3-0.7-11.2,1.4C135.9,105,133.9,106.2,133.2,106.6z"/>
</svg>
