<?xml version="1.0" encoding="UTF-8"?>
<svg xmlns="http://www.w3.org/2000/svg" xmlns:xlink="http://www.w3.org/1999/xlink" width="150px" height="150px" viewBox="0 0 150 146" version="1.1">
<g id="surface1">
<path style=" stroke:none;fill-rule:nonzero;fill:rgb(0.392157%,0.392157%,0.392157%);fill-opacity:1;" d="M 85.253906 146.117188 C 56.835938 146.117188 28.476562 146.117188 0.121094 146.117188 C 0.121094 97.453125 0.121094 48.785156 0.121094 0.117188 C 50.121094 0.117188 100.121094 0.117188 150.121094 0.117188 C 150.121094 48.785156 150.121094 97.453125 150.121094 146.117188 C 128.515625 146.117188 106.914062 146.117188 85.253906 146.117188 M 75.089844 77.632812 C 74.375 77.480469 73.65625 77.335938 72.941406 77.183594 C 71.222656 76.816406 69.5 76.445312 67.78125 76.078125 C 66.503906 75.800781 65.222656 75.554688 63.957031 75.234375 C 63.507812 75.121094 63.289062 75.214844 63.042969 75.59375 C 51.773438 92.941406 40.492188 110.28125 29.214844 127.621094 C 28.683594 128.441406 28.160156 129.261719 27.632812 130.082031 C 27.664062 130.121094 27.695312 130.160156 27.726562 130.195312 C 63.257812 116.953125 98.792969 103.714844 134.433594 90.433594 C 134.179688 90.3125 134.023438 90.195312 133.84375 90.15625 C 133.035156 89.96875 132.222656 89.804688 131.40625 89.636719 C 129.742188 89.289062 128.074219 88.960938 126.410156 88.605469 C 124.378906 88.167969 122.359375 87.703125 120.328125 87.269531 C 118.296875 86.835938 116.257812 86.441406 114.226562 86.003906 C 111.832031 85.492188 109.441406 84.941406 107.042969 84.429688 C 104.625 83.914062 102.199219 83.4375 99.78125 82.921875 C 97.015625 82.332031 94.261719 81.703125 91.496094 81.109375 C 88.710938 80.515625 85.917969 79.957031 83.132812 79.371094 C 80.480469 78.808594 77.835938 78.234375 75.089844 77.632812 M 102.054688 56.820312 C 83.929688 42.332031 65.800781 27.84375 47.558594 13.265625 C 47.601562 13.582031 47.597656 13.726562 47.636719 13.851562 C 48.351562 15.980469 49.066406 18.109375 49.785156 20.234375 C 51.023438 23.886719 52.273438 27.539062 53.507812 31.195312 C 54.738281 34.851562 55.945312 38.519531 57.175781 42.175781 C 58.410156 45.832031 59.664062 49.480469 60.898438 53.140625 C 62.203125 57.019531 63.488281 60.910156 64.800781 64.789062 C 64.875 65.011719 65.039062 65.304688 65.226562 65.367188 C 65.859375 65.585938 66.523438 65.710938 67.175781 65.878906 C 68.839844 66.308594 70.503906 66.742188 72.167969 67.175781 C 73.832031 67.609375 75.492188 68.046875 77.15625 68.484375 C 78.859375 68.925781 80.5625 69.371094 82.265625 69.8125 C 83.910156 70.238281 85.554688 70.667969 87.199219 71.09375 C 88.863281 71.523438 90.53125 71.945312 92.195312 72.378906 C 93.878906 72.816406 95.558594 73.265625 97.242188 73.707031 C 98.941406 74.152344 100.644531 74.59375 102.347656 75.035156 C 104.011719 75.46875 105.679688 75.894531 107.34375 76.328125 C 109.027344 76.765625 110.707031 77.207031 112.390625 77.648438 C 114.035156 78.078125 115.679688 78.503906 117.328125 78.929688 C 118.992188 79.359375 120.65625 79.785156 122.320312 80.214844 C 124.003906 80.652344 125.6875 81.101562 127.367188 81.542969 C 129.070312 81.988281 130.769531 82.433594 132.472656 82.875 C 133.449219 83.125 134.425781 83.363281 135.398438 83.609375 C 134.640625 82.863281 133.84375 82.21875 133.042969 81.578125 C 122.738281 73.339844 112.433594 65.101562 102.054688 56.820312 M 28.519531 115.480469 C 28.582031 115.378906 28.648438 115.28125 28.707031 115.179688 C 34.417969 105.363281 40.125 95.546875 45.835938 85.730469 C 49.023438 80.25 52.207031 74.773438 55.398438 69.292969 C 55.574219 68.992188 55.632812 68.734375 55.519531 68.363281 C 55.132812 67.0625 54.824219 65.734375 54.472656 64.425781 C 54.039062 62.808594 53.585938 61.195312 53.148438 59.582031 C 52.644531 57.71875 52.144531 55.855469 51.644531 53.988281 C 51.132812 52.066406 50.632812 50.140625 50.113281 48.222656 C 49.597656 46.300781 49.0625 44.386719 48.546875 42.464844 C 48.03125 40.542969 47.53125 38.621094 47.015625 36.699219 C 46.5 34.777344 45.964844 32.863281 45.445312 30.941406 C 44.929688 29.023438 44.429688 27.097656 43.914062 25.175781 C 43.308594 22.910156 42.699219 20.648438 42.082031 18.390625 C 41.851562 17.535156 41.597656 16.683594 41.355469 15.832031 C 41.089844 16.714844 40.957031 17.566406 40.8125 18.417969 C 40.523438 20.128906 40.226562 21.835938 39.933594 23.546875 C 39.746094 24.632812 39.566406 25.722656 39.378906 26.8125 C 39.089844 28.480469 38.796875 30.152344 38.511719 31.824219 C 38.320312 32.929688 38.144531 34.039062 37.953125 35.148438 C 37.664062 36.835938 37.367188 38.527344 37.078125 40.214844 C 36.886719 41.324219 36.707031 42.433594 36.515625 43.542969 C 36.230469 45.210938 35.933594 46.882812 35.648438 48.550781 C 35.457031 49.660156 35.28125 50.769531 35.09375 51.875 C 34.800781 53.585938 34.503906 55.296875 34.210938 57.003906 C 34.023438 58.09375 33.839844 59.183594 33.652344 60.269531 C 33.367188 61.941406 33.074219 63.609375 32.785156 65.28125 C 32.597656 66.390625 32.421875 67.5 32.230469 68.605469 C 31.945312 70.257812 31.644531 71.90625 31.363281 73.558594 C 31.089844 75.152344 30.835938 76.75 30.566406 78.34375 C 30.273438 80.070312 29.972656 81.800781 29.675781 83.53125 C 29.492188 84.597656 29.316406 85.667969 29.128906 86.734375 C 28.84375 88.386719 28.546875 90.035156 28.261719 91.6875 C 27.992188 93.28125 27.738281 94.878906 27.464844 96.472656 C 27.175781 98.179688 26.875 99.890625 26.582031 101.597656 C 26.394531 102.6875 26.21875 103.777344 26.027344 104.863281 C 25.742188 106.515625 25.445312 108.164062 25.164062 109.816406 C 24.890625 111.410156 24.640625 113.007812 24.367188 114.601562 C 24.085938 116.210938 23.785156 117.820312 23.503906 119.433594 C 23.199219 121.179688 22.898438 122.925781 22.605469 124.675781 C 22.5625 124.929688 22.578125 125.191406 22.5625 125.449219 C 22.609375 125.460938 22.660156 125.46875 22.707031 125.476562 C 24.632812 122.171875 26.558594 118.863281 28.519531 115.480469 Z M 28.519531 115.480469 "/>
<path style=" stroke:none;fill-rule:nonzero;fill:rgb(97.647059%,97.647059%,97.647059%);fill-opacity:1;" d="M 75.136719 77.648438 C 77.835938 78.234375 80.480469 78.808594 83.132812 79.371094 C 85.917969 79.957031 88.710938 80.515625 91.496094 81.109375 C 94.261719 81.703125 97.015625 82.332031 99.78125 82.921875 C 102.199219 83.4375 104.625 83.914062 107.042969 84.429688 C 109.441406 84.941406 111.832031 85.492188 114.226562 86.003906 C 116.257812 86.441406 118.296875 86.835938 120.328125 87.269531 C 122.359375 87.703125 124.378906 88.167969 126.410156 88.605469 C 128.074219 88.960938 129.742188 89.289062 131.40625 89.636719 C 132.222656 89.804688 133.035156 89.96875 133.84375 90.15625 C 134.023438 90.195312 134.179688 90.3125 134.433594 90.433594 C 98.792969 103.714844 63.257812 116.953125 27.726562 130.195312 C 27.695312 130.160156 27.664062 130.121094 27.632812 130.082031 C 28.160156 129.261719 28.683594 128.441406 29.214844 127.621094 C 40.492188 110.28125 51.773438 92.941406 63.042969 75.59375 C 63.289062 75.214844 63.507812 75.121094 63.957031 75.234375 C 65.222656 75.554688 66.503906 75.800781 67.78125 76.078125 C 69.5 76.445312 71.222656 76.816406 72.941406 77.183594 C 73.65625 77.335938 74.375 77.480469 75.136719 77.648438 M 42.039062 118.832031 C 40.941406 120.382812 39.84375 121.929688 38.742188 123.480469 C 38.789062 123.542969 38.835938 123.601562 38.882812 123.664062 C 66.25 113.460938 93.613281 103.253906 120.980469 93.050781 C 120.964844 92.976562 120.953125 92.902344 120.941406 92.824219 C 120.332031 92.707031 119.722656 92.582031 119.109375 92.476562 C 117.589844 92.207031 116.070312 91.953125 114.550781 91.679688 C 113.011719 91.402344 111.480469 91.097656 109.941406 90.820312 C 108.421875 90.546875 106.894531 90.304688 105.378906 90.03125 C 103.410156 89.671875 101.449219 89.285156 99.484375 88.929688 C 97.945312 88.652344 96.398438 88.414062 94.859375 88.136719 C 92.894531 87.78125 90.9375 87.386719 88.96875 87.03125 C 87.003906 86.679688 85.027344 86.367188 83.0625 86.007812 C 80.667969 85.574219 78.277344 85.109375 75.882812 84.667969 C 73.257812 84.1875 70.628906 83.71875 67.996094 83.246094 C 67.605469 83.175781 67.273438 83.164062 66.976562 83.585938 C 58.6875 95.316406 50.386719 107.039062 42.039062 118.832031 Z M 42.039062 118.832031 "/>
<path style=" stroke:none;fill-rule:nonzero;fill:rgb(97.254902%,97.254902%,97.254902%);fill-opacity:1;" d="M 102.089844 56.84375 C 112.433594 65.101562 122.738281 73.339844 133.042969 81.578125 C 133.84375 82.21875 134.640625 82.863281 135.398438 83.609375 C 134.425781 83.363281 133.449219 83.125 132.472656 82.875 C 130.769531 82.433594 129.070312 81.988281 127.367188 81.542969 C 125.6875 81.101562 124.003906 80.652344 122.320312 80.214844 C 120.65625 79.785156 118.992188 79.359375 117.328125 78.929688 C 115.679688 78.503906 114.035156 78.078125 112.390625 77.648438 C 110.707031 77.207031 109.027344 76.765625 107.34375 76.328125 C 105.679688 75.894531 104.011719 75.46875 102.347656 75.035156 C 100.644531 74.59375 98.941406 74.152344 97.242188 73.707031 C 95.558594 73.265625 93.878906 72.816406 92.195312 72.378906 C 90.53125 71.945312 88.863281 71.523438 87.199219 71.09375 C 85.554688 70.667969 83.910156 70.238281 82.265625 69.8125 C 80.5625 69.371094 78.859375 68.925781 77.15625 68.484375 C 75.492188 68.046875 73.832031 67.609375 72.167969 67.175781 C 70.503906 66.742188 68.839844 66.308594 67.175781 65.878906 C 66.523438 65.710938 65.859375 65.585938 65.226562 65.367188 C 65.039062 65.304688 64.875 65.011719 64.800781 64.789062 C 63.488281 60.910156 62.203125 57.019531 60.898438 53.140625 C 59.664062 49.480469 58.410156 45.832031 57.175781 42.175781 C 55.945312 38.519531 54.738281 34.851562 53.507812 31.195312 C 52.273438 27.539062 51.023438 23.886719 49.785156 20.234375 C 49.066406 18.109375 48.351562 15.980469 47.636719 13.851562 C 47.597656 13.726562 47.601562 13.582031 47.558594 13.265625 C 65.800781 27.84375 83.929688 42.332031 102.089844 56.84375 M 84.175781 44.691406 C 74.789062 37.179688 65.402344 29.671875 56.011719 22.160156 C 55.917969 22.371094 55.917969 22.488281 55.957031 22.589844 C 56.691406 24.503906 57.433594 26.414062 58.171875 28.324219 C 59.570312 31.941406 60.96875 35.5625 62.363281 39.179688 C 63.746094 42.765625 65.125 46.347656 66.507812 49.933594 C 67.910156 53.570312 69.308594 57.210938 70.734375 60.839844 C 70.824219 61.074219 71.078125 61.335938 71.3125 61.40625 C 73.503906 62.066406 75.714844 62.679688 77.914062 63.316406 C 80.820312 64.15625 83.71875 65.011719 86.625 65.84375 C 89.53125 66.675781 92.445312 67.476562 95.351562 68.304688 C 98.257812 69.136719 101.15625 70 104.0625 70.832031 C 106.96875 71.660156 109.886719 72.464844 112.792969 73.296875 C 115.964844 74.203125 119.128906 75.132812 122.300781 76.046875 C 122.675781 76.15625 123.066406 76.230469 123.449219 76.320312 C 123.363281 76.0625 123.230469 75.925781 123.085938 75.808594 C 121.910156 74.867188 120.734375 73.929688 119.5625 72.988281 C 107.789062 63.574219 96.015625 54.15625 84.175781 44.691406 Z M 84.175781 44.691406 "/>
<path style=" stroke:none;fill-rule:nonzero;fill:rgb(96.470588%,96.470588%,96.470588%);fill-opacity:1;" d="M 28.5 115.519531 C 26.558594 118.863281 24.632812 122.171875 22.707031 125.476562 C 22.660156 125.46875 22.609375 125.460938 22.5625 125.449219 C 22.578125 125.191406 22.5625 124.929688 22.605469 124.675781 C 22.898438 122.925781 23.199219 121.179688 23.503906 119.433594 C 23.785156 117.820312 24.085938 116.210938 24.367188 114.601562 C 24.640625 113.007812 24.890625 111.410156 25.164062 109.816406 C 25.445312 108.164062 25.742188 106.515625 26.027344 104.863281 C 26.21875 103.777344 26.394531 102.6875 26.582031 101.597656 C 26.875 99.890625 27.175781 98.179688 27.464844 96.472656 C 27.738281 94.878906 27.992188 93.28125 28.261719 91.6875 C 28.546875 90.035156 28.84375 88.386719 29.128906 86.734375 C 29.316406 85.667969 29.492188 84.597656 29.675781 83.53125 C 29.972656 81.800781 30.273438 80.070312 30.566406 78.34375 C 30.835938 76.75 31.089844 75.152344 31.363281 73.558594 C 31.644531 71.90625 31.945312 70.257812 32.230469 68.605469 C 32.421875 67.5 32.597656 66.390625 32.785156 65.28125 C 33.074219 63.609375 33.367188 61.941406 33.652344 60.269531 C 33.839844 59.183594 34.023438 58.09375 34.210938 57.003906 C 34.503906 55.296875 34.800781 53.585938 35.09375 51.875 C 35.28125 50.769531 35.457031 49.660156 35.648438 48.550781 C 35.933594 46.882812 36.230469 45.210938 36.515625 43.542969 C 36.707031 42.433594 36.886719 41.324219 37.078125 40.214844 C 37.367188 38.527344 37.664062 36.835938 37.953125 35.148438 C 38.144531 34.039062 38.320312 32.929688 38.511719 31.824219 C 38.796875 30.152344 39.089844 28.480469 39.378906 26.8125 C 39.566406 25.722656 39.746094 24.632812 39.933594 23.546875 C 40.226562 21.835938 40.523438 20.128906 40.8125 18.417969 C 40.957031 17.566406 41.089844 16.714844 41.355469 15.832031 C 41.597656 16.683594 41.851562 17.535156 42.082031 18.390625 C 42.699219 20.648438 43.308594 22.910156 43.914062 25.175781 C 44.429688 27.097656 44.929688 29.023438 45.445312 30.941406 C 45.964844 32.863281 46.5 34.777344 47.015625 36.699219 C 47.53125 38.621094 48.03125 40.542969 48.546875 42.464844 C 49.0625 44.386719 49.597656 46.300781 50.113281 48.222656 C 50.632812 50.140625 51.132812 52.066406 51.644531 53.988281 C 52.144531 55.855469 52.644531 57.71875 53.148438 59.582031 C 53.585938 61.195312 54.039062 62.808594 54.472656 64.425781 C 54.824219 65.734375 55.132812 67.0625 55.519531 68.363281 C 55.632812 68.734375 55.574219 68.992188 55.398438 69.292969 C 52.207031 74.773438 49.023438 80.25 45.835938 85.730469 C 40.125 95.546875 34.417969 105.363281 28.707031 115.179688 C 28.648438 115.28125 28.582031 115.378906 28.5 115.519531 M 29.410156 92.957031 C 29.171875 94.355469 28.9375 95.753906 28.691406 97.152344 C 28.246094 99.695312 27.785156 102.234375 27.335938 104.777344 C 26.933594 107.066406 26.53125 109.355469 26.140625 111.644531 C 26.09375 111.9375 26.136719 112.246094 26.136719 112.722656 C 26.34375 112.414062 26.460938 112.265625 26.550781 112.105469 C 27.597656 110.203125 28.640625 108.300781 29.6875 106.398438 C 36.316406 94.367188 42.9375 82.332031 49.578125 70.308594 C 49.957031 69.621094 50.238281 69.015625 49.988281 68.167969 C 49.546875 66.679688 49.265625 65.144531 48.914062 63.628906 C 48.546875 62.054688 48.175781 60.484375 47.808594 58.914062 C 47.457031 57.417969 47.113281 55.921875 46.765625 54.425781 C 46.402344 52.894531 46.035156 51.363281 45.675781 49.828125 C 45.304688 48.257812 44.9375 46.683594 44.570312 45.113281 C 44.222656 43.617188 43.871094 42.121094 43.527344 40.625 C 43.175781 39.109375 42.835938 37.59375 42.484375 36.078125 C 42.117188 34.484375 41.742188 32.894531 41.363281 31.304688 C 41.109375 30.230469 40.851562 29.160156 40.59375 28.085938 C 40.433594 28.371094 40.386719 28.648438 40.339844 28.929688 C 40.046875 30.617188 39.753906 32.308594 39.464844 33.996094 C 39.273438 35.105469 39.09375 36.210938 38.902344 37.320312 C 38.613281 39.007812 38.320312 40.699219 38.03125 42.386719 C 37.84375 43.496094 37.65625 44.601562 37.464844 45.710938 C 37.183594 47.359375 36.890625 49.011719 36.609375 50.660156 C 36.417969 51.789062 36.238281 52.917969 36.046875 54.042969 C 35.757812 55.753906 35.460938 57.460938 35.167969 59.171875 C 34.980469 60.257812 34.800781 61.347656 34.613281 62.4375 C 34.328125 64.066406 34.03125 65.695312 33.753906 67.328125 C 33.480469 68.9375 33.226562 70.554688 32.953125 72.167969 C 32.664062 73.898438 32.359375 75.625 32.066406 77.351562 C 31.882812 78.421875 31.703125 79.488281 31.519531 80.558594 C 31.226562 82.265625 30.929688 83.976562 30.636719 85.683594 C 30.453125 86.773438 30.269531 87.859375 30.082031 88.949219 C 29.863281 90.25 29.644531 91.554688 29.410156 92.957031 Z M 29.410156 92.957031 "/>
<path style=" stroke:none;fill-rule:nonzero;fill:rgb(0.784314%,0.784314%,0.784314%);fill-opacity:1;" d="M 42.0625 118.796875 C 50.386719 107.039062 58.6875 95.316406 66.976562 83.585938 C 67.273438 83.164062 67.605469 83.175781 67.996094 83.246094 C 70.628906 83.71875 73.257812 84.1875 75.882812 84.667969 C 78.277344 85.109375 80.667969 85.574219 83.0625 86.007812 C 85.027344 86.367188 87.003906 86.679688 88.96875 87.03125 C 90.9375 87.386719 92.894531 87.78125 94.859375 88.136719 C 96.398438 88.414062 97.945312 88.652344 99.484375 88.929688 C 101.449219 89.285156 103.410156 89.671875 105.378906 90.03125 C 106.894531 90.304688 108.421875 90.546875 109.941406 90.820312 C 111.480469 91.097656 113.011719 91.402344 114.550781 91.679688 C 116.070312 91.953125 117.589844 92.207031 119.109375 92.476562 C 119.722656 92.582031 120.332031 92.707031 120.941406 92.824219 C 120.953125 92.902344 120.964844 92.976562 120.980469 93.050781 C 93.613281 103.253906 66.25 113.460938 38.882812 123.664062 C 38.835938 123.601562 38.789062 123.542969 38.742188 123.480469 C 39.84375 121.929688 40.941406 120.382812 42.0625 118.796875 Z M 42.0625 118.796875 "/>
<path style=" stroke:none;fill-rule:nonzero;fill:rgb(0.784314%,0.784314%,0.784314%);fill-opacity:1;" d="M 84.210938 44.714844 C 96.015625 54.15625 107.789062 63.574219 119.5625 72.988281 C 120.734375 73.929688 121.910156 74.867188 123.085938 75.808594 C 123.230469 75.925781 123.363281 76.0625 123.449219 76.320312 C 123.066406 76.230469 122.675781 76.15625 122.300781 76.046875 C 119.128906 75.132812 115.964844 74.203125 112.792969 73.296875 C 109.886719 72.464844 106.96875 71.660156 104.0625 70.832031 C 101.15625 70 98.257812 69.136719 95.351562 68.304688 C 92.445312 67.476562 89.53125 66.675781 86.625 65.84375 C 83.71875 65.011719 80.820312 64.15625 77.914062 63.316406 C 75.714844 62.679688 73.503906 62.066406 71.3125 61.40625 C 71.078125 61.335938 70.824219 61.074219 70.734375 60.839844 C 69.308594 57.210938 67.910156 53.570312 66.507812 49.933594 C 65.125 46.347656 63.746094 42.765625 62.363281 39.179688 C 60.96875 35.5625 59.570312 31.941406 58.171875 28.324219 C 57.433594 26.414062 56.691406 24.503906 55.957031 22.589844 C 55.917969 22.488281 55.917969 22.371094 56.011719 22.160156 C 65.402344 29.671875 74.789062 37.179688 84.210938 44.714844 Z M 84.210938 44.714844 "/>
<path style=" stroke:none;fill-rule:nonzero;fill:rgb(1.176471%,1.176471%,1.176471%);fill-opacity:1;" d="M 29.417969 92.90625 C 29.644531 91.554688 29.863281 90.25 30.082031 88.949219 C 30.269531 87.859375 30.453125 86.773438 30.636719 85.683594 C 30.929688 83.976562 31.226562 82.265625 31.519531 80.558594 C 31.703125 79.488281 31.882812 78.421875 32.066406 77.351562 C 32.359375 75.625 32.664062 73.898438 32.953125 72.167969 C 33.226562 70.554688 33.480469 68.9375 33.753906 67.328125 C 34.03125 65.695312 34.328125 64.066406 34.613281 62.4375 C 34.800781 61.347656 34.980469 60.257812 35.167969 59.171875 C 35.460938 57.460938 35.757812 55.753906 36.046875 54.042969 C 36.238281 52.917969 36.417969 51.789062 36.609375 50.660156 C 36.890625 49.011719 37.183594 47.359375 37.464844 45.710938 C 37.65625 44.601562 37.84375 43.496094 38.03125 42.386719 C 38.320312 40.699219 38.613281 39.007812 38.902344 37.320312 C 39.09375 36.210938 39.273438 35.105469 39.464844 33.996094 C 39.753906 32.308594 40.046875 30.617188 40.339844 28.929688 C 40.386719 28.648438 40.433594 28.371094 40.59375 28.085938 C 40.851562 29.160156 41.109375 30.230469 41.363281 31.304688 C 41.742188 32.894531 42.117188 34.484375 42.484375 36.078125 C 42.835938 37.59375 43.175781 39.109375 43.527344 40.625 C 43.871094 42.121094 44.222656 43.617188 44.570312 45.113281 C 44.9375 46.683594 45.304688 48.257812 45.675781 49.828125 C 46.035156 51.363281 46.402344 52.894531 46.765625 54.425781 C 47.113281 55.921875 47.457031 57.417969 47.808594 58.914062 C 48.175781 60.484375 48.546875 62.054688 48.914062 63.628906 C 49.265625 65.144531 49.546875 66.679688 49.988281 68.167969 C 50.238281 69.015625 49.957031 69.621094 49.578125 70.308594 C 42.9375 82.332031 36.316406 94.367188 29.6875 106.398438 C 28.640625 108.300781 27.597656 110.203125 26.550781 112.105469 C 26.460938 112.265625 26.34375 112.414062 26.136719 112.722656 C 26.136719 112.246094 26.09375 111.9375 26.140625 111.644531 C 26.53125 109.355469 26.933594 107.066406 27.335938 104.777344 C 27.785156 102.234375 28.246094 99.695312 28.691406 97.152344 C 28.9375 95.753906 29.171875 94.355469 29.417969 92.90625 Z M 29.417969 92.90625 "/>
</g>
</svg>
