<?xml version="1.0" standalone="no"?>
<!DOCTYPE svg PUBLIC "-//W3C//DTD SVG 20010904//EN"
 "http://www.w3.org/TR/2001/REC-SVG-20010904/DTD/svg10.dtd">
<svg version="1.0" xmlns="http://www.w3.org/2000/svg"
 width="512.000000pt" height="512.000000pt" viewBox="0 0 512.000000 512.000000"
 preserveAspectRatio="xMidYMid meet">

<g transform="translate(0.000000,512.000000) scale(0.100000,-0.100000)"
fill="#000000" stroke="none">
<path d="M2595 5109 c-134 -30 -256 -98 -338 -190 -65 -71 -211 -323 -238
-410 -36 -115 -34 -291 6 -391 5 -13 -13 -25 -90 -62 -117 -55 -211 -123 -298
-215 -111 -119 -183 -242 -234 -406 l-28 -90 -3 -639 c-3 -616 -2 -641 18
-719 34 -136 95 -250 188 -349 l45 -48 -71 0 c-65 0 -75 -3 -104 -29 -27 -24
-33 -36 -33 -71 0 -35 6 -47 33 -71 l32 -29 545 0 545 0 0 -120 0 -120 -975 0
-975 0 0 119 0 119 30 12 c63 26 81 104 36 157 -23 27 -27 28 -121 28 -94 0
-98 -1 -121 -28 l-24 -28 0 -259 0 -259 24 -28 c22 -26 32 -28 108 -33 l83 -5
5 -450 c3 -247 7 -451 8 -453 1 -1 17 -11 34 -22 31 -18 51 -20 276 -20 261 0
285 4 310 52 9 17 13 138 15 458 l2 435 313 3 312 2 0 -434 c0 -316 3 -442 12
-461 23 -51 46 -55 310 -55 225 0 245 2 276 20 17 11 33 21 34 22 1 2 5 206 8
453 l5 450 80 3 c71 3 83 6 107 29 27 26 28 30 28 136 0 65 4 107 10 105 5 -1
143 -158 306 -348 583 -678 701 -803 800 -840 120 -44 246 -35 352 27 45 26
367 322 414 381 39 48 51 95 46 173 -8 108 -68 190 -165 225 -51 18 -179 17
-262 -1 -37 -9 -97 -31 -134 -49 l-67 -34 -99 141 c-54 78 -227 329 -385 557
l-288 415 53 8 c163 24 273 149 273 312 -1 140 -59 216 -239 311 -114 60 -568
376 -642 447 -65 62 -91 134 -113 305 -11 81 -22 218 -26 305 l-7 157 40 0
c64 0 189 37 266 77 111 60 187 143 284 314 121 210 128 234 128 404 0 134 -2
143 -33 220 -78 193 -228 324 -430 376 -79 20 -188 24 -257 8z m262 -217 c114
-43 214 -151 248 -265 23 -79 19 -200 -9 -269 -43 -105 -154 -283 -206 -332
-237 -221 -615 -105 -690 213 -15 62 -9 157 13 219 26 74 150 282 197 331 88
92 193 134 320 127 41 -2 98 -13 127 -24z m-655 -1027 c32 -30 90 -70 127 -87
l68 -33 6 -170 c4 -94 13 -233 22 -310 39 -344 80 -408 422 -652 112 -80 205
-149 208 -153 3 -5 -31 -47 -75 -93 l-81 -86 -77 46 c-42 25 -180 107 -306
181 -333 198 -349 217 -416 515 -21 97 -44 186 -50 197 -46 86 -180 52 -180
-47 0 -21 18 -117 40 -213 73 -322 135 -406 428 -579 94 -56 172 -104 172
-106 0 -3 -212 -5 -470 -5 l-471 0 3 528 3 527 28 80 c80 229 249 407 466 492
31 12 60 22 65 22 4 1 35 -24 68 -54z m1120 -1562 c79 -41 103 -70 102 -123
-3 -84 -55 -116 -172 -106 -84 8 -146 31 -176 65 l-20 22 89 89 c49 50 94 90
98 90 5 0 41 -17 79 -37z m-489 -261 c32 -13 86 -45 120 -70 55 -43 102 -106
505 -687 244 -352 446 -646 449 -654 4 -8 -28 -46 -88 -102 l-94 -88 -35 39
c-19 21 -188 216 -374 432 -263 304 -503 577 -589 670 -1 1 -157 4 -347 8
-342 5 -346 6 -419 32 -148 54 -265 157 -332 292 -22 45 -42 98 -46 119 l-6
38 599 -3 599 -3 58 -23z m-1753 -1467 l0 -375 -120 0 -120 0 0 375 0 375 120
0 120 0 0 -375z m1270 0 l0 -375 -120 0 -120 0 0 375 0 375 120 0 120 0 0
-375z m2132 58 c10 -9 18 -29 18 -44 0 -23 -30 -56 -172 -190 -96 -90 -190
-170 -213 -180 -76 -35 -168 -16 -227 48 l-28 29 134 125 c74 69 153 138 176
154 93 64 269 97 312 58z"/>
<path d="M999 1562 c-28 -25 -34 -37 -34 -72 0 -35 6 -47 33 -71 36 -32 69
-36 112 -14 85 44 60 169 -36 182 -36 5 -46 1 -75 -25z"/>
</g>
</svg>
